HIERARCHY
ROOT Hips
{
	OFFSET -4.241529 102.762794 -1.538050
	CHANNELS 6 Xposition Yposition Zposition Xrotation Yrotation Zrotation
	JOINT Chest
	{
		OFFSET 3.085958 13.276115 0.613050
		CHANNELS 3 Xrotation Yrotation Zrotation
		JOINT Chest2
		{
			OFFSET 5.191101 20.785080 0.315678
			CHANNELS 3 Xrotation Yrotation Zrotation
			JOINT Chest3
			{
				OFFSET 3.798828 14.425476 -0.542805
				CHANNELS 3 Xrotation Yrotation Zrotation
				JOINT Neck
				{
					OFFSET 3.580393 16.900116 0.427489
					CHANNELS 3 Xrotation Yrotation Zrotation
					JOINT Head
					{
						OFFSET 0.289881 10.272736 2.052908
						CHANNELS 3 Xrotation Yrotation Zrotation
						End Site
						{
							OFFSET 0.326827 10.283844 1.990840
						}
					}
				}
				JOINT LeftCollar
				{
					OFFSET 5.653728 12.246033 4.458066
					CHANNELS 3 Xrotation Yrotation Zrotation
					JOINT LeftUpArm
					{
						OFFSET 15.874117 -7.053940 -2.598817
						CHANNELS 3 Xrotation Yrotation Zrotation
						JOINT LeftLowArm
						{
							OFFSET 6.081470 -33.207573 -0.038372
							CHANNELS 3 Xrotation Yrotation Zrotation
							JOINT LeftHand
							{
								OFFSET 7.071857 -28.175980 7.553186
								CHANNELS 3 Xrotation Yrotation Zrotation
								End Site
								{
									OFFSET 1.545589 -6.158028 1.650792
								}
							}
						}
					}
				}
				JOINT RightCollar
				{
					OFFSET -2.085674 13.957428 1.627538
					CHANNELS 3 Xrotation Yrotation Zrotation
					JOINT RightUpArm
					{
						OFFSET -13.239557 -3.218079 -11.083965
						CHANNELS 3 Xrotation Yrotation Zrotation
						JOINT RightLowArm
						{
							OFFSET -19.751104 -20.999603 17.568304
							CHANNELS 3 Xrotation Yrotation Zrotation
							JOINT RightHand
							{
								OFFSET -9.503193 23.244431 16.442032
								CHANNELS 3 Xrotation Yrotation Zrotation
								End Site
								{
									OFFSET -2.077023 5.080292 3.593584
								}
							}
						}
					}
				}
			}
		}
	}
	JOINT LeftUpLeg
	{
		OFFSET 8.598155 -2.213379 4.646702
		CHANNELS 3 Xrotation Yrotation Zrotation
		JOINT LeftLowLeg
		{
			OFFSET 3.447650 -46.130085 10.203884
			CHANNELS 3 Xrotation Yrotation Zrotation
			JOINT LeftFoot
			{
				OFFSET 31.398256 -24.815392 -19.972837
				CHANNELS 3 Xrotation Yrotation Zrotation
				JOINT LeftToe
				{
					OFFSET 11.465652 -20.337471 3.806002
					CHANNELS 3 Xrotation Yrotation Zrotation
					End Site
					{
						OFFSET 4.156746 -15.701137 17.197517
					}
				}
			}
		}
	}
	JOINT RightUpLeg
	{
		OFFSET -8.598203 2.213181 -4.646713
		CHANNELS 3 Xrotation Yrotation Zrotation
		JOINT RightLowLeg
		{
			OFFSET -4.732971 -47.073967 -2.377854
			CHANNELS 3 Xrotation Yrotation Zrotation
			JOINT RightFoot
			{
				OFFSET 10.556734 -39.763245 -17.550520
				CHANNELS 3 Xrotation Yrotation Zrotation
				JOINT RightToe
				{
					OFFSET -3.960088 -16.508091 16.472939
					CHANNELS 3 Xrotation Yrotation Zrotation
					End Site
					{
						OFFSET -8.587068 -2.256449 21.925484
					}
				}
			}
		}
	}
}
MOTION
Frames: 5
Frame Time: 0.033333
-4.690722 105.518616 -1.111725 6.141702 25.613735 13.773993 -3.091080 0.353468 1.625477 -1.134992 1.250806 -1.743702 1.681351 -3.589607 -3.353495 -8.250672 5.541485 -5.962222 -0.000001 0.000003 0.000001 6.588426 -5.833741 -9.660789 -12.310372 -16.116615 -6.904613 -1.877704 -11.700913 -8.587870 0.000000 0.000001 -0.000002 0.425181 -6.841663 5.346345 23.394689 -13.993653 21.528816 62.329376 28.855039 34.333425 -0.000003 0.000001 0.000001 6.929939 -1.426457 -12.387914 -24.884005 11.642688 -38.456571 -10.238272 -21.211614 -14.546949 0.000002 0.000001 -0.000002 -1.797517 0.242124 -9.836022 -10.816369 -2.170126 -11.612245 10.921842 -3.641526 4.827300 -0.000001 -0.000001 0.000002 
-4.697330 105.517754 -1.111725 4.810371 24.725375 13.799619 -0.803302 -0.286188 2.521472 -4.024400 2.304632 -3.247882 3.478046 -4.485302 -2.082385 -7.955595 6.202451 -6.500156 0.000000 0.000004 0.000000 6.760156 -3.457754 -10.154707 -11.943207 -16.065611 -6.550408 -2.103100 -11.969744 -9.434049 0.000004 -0.000004 0.000001 0.796543 -5.580185 5.569091 22.842302 -13.388923 20.825447 62.622576 28.529859 34.500740 0.000001 -0.000002 -0.000001 8.369213 -1.582787 -11.630869 -25.153217 11.891156 -38.683736 -10.949959 -21.285742 -14.606201 -0.000004 0.000002 -0.000003 -0.905284 -0.004024 -9.378582 -10.347826 -2.262136 -11.641793 11.499161 -2.946783 3.957351 -0.000000 -0.000002 0.000002 
-4.697945 105.518677 -1.110479 4.216793 24.432727 13.879023 0.200080 -0.552508 2.931162 -5.923443 2.986450 -4.138855 4.801000 -4.950964 -1.373461 -7.536374 6.265287 -6.549206 -0.000001 0.000002 0.000001 6.796889 -2.457033 -10.255230 -11.760693 -15.905127 -6.481699 -2.354986 -12.027604 -9.924636 0.000002 -0.000001 -0.000001 0.699660 -5.906973 5.419474 22.637542 -13.205737 20.814573 63.194789 28.840392 35.053251 -0.000001 -0.000006 0.000006 9.203291 -1.690310 -11.381770 -25.360677 11.903564 -38.706802 -10.874542 -21.110045 -14.441028 0.000003 0.000003 -0.000002 -0.415041 -0.145540 -9.295291 -10.173202 -2.256758 -11.592181 11.562502 -2.649495 3.565191 0.000000 -0.000001 0.000001 
-4.697675 105.515862 -1.109250 3.694165 24.498044 13.890128 0.676104 -0.668456 3.135697 -6.082304 3.051191 -4.225127 4.602076 -5.167777 -1.470318 -7.547001 6.284964 -6.551181 -0.000000 0.000002 0.000001 6.802304 -2.184262 -10.413218 -11.440848 -15.743617 -6.373276 -2.565943 -12.184561 -9.904636 0.000001 -0.000006 0.000001 0.870053 -5.313568 5.493628 22.917726 -13.459975 21.008856 63.256308 28.856211 34.654659 -0.000003 -0.000001 -0.000000 9.697999 -1.702894 -11.128054 -25.233926 11.905740 -38.673918 -11.191199 -21.332060 -14.711683 0.000001 0.000000 -0.000000 0.275991 -0.379279 -8.983136 -10.478590 -2.241526 -11.730566 11.694355 -2.722649 3.787862 -0.000000 -0.000001 0.000003 
-4.697937 105.513763 -1.115498 5.164835 25.274541 13.684213 -1.588176 -0.060349 2.283868 -3.987274 2.028478 -2.829151 3.408592 -4.706531 -2.628429 -8.151298 5.862031 -6.304577 -0.000001 0.000000 0.000000 6.620396 -4.443068 -9.871278 -11.869948 -16.076653 -6.770154 -2.072663 -12.339760 -8.943917 0.000002 -0.000001 -0.000002 0.561598 -6.460080 5.442518 23.273948 -13.725624 21.469387 63.638423 29.114296 34.342826 -0.000000 -0.000002 0.000003 8.278165 -1.541327 -11.674992 -25.507977 11.909533 -38.545749 -10.578910 -21.367951 -14.696641 -0.000000 0.000001 -0.000001 -0.653831 -0.110806 -9.244841 -11.240336 -2.241010 -11.931529 11.217177 -3.321341 4.511312 0.000002 -0.000002 0.000002 
